%FSLAX45Y45*%
G04 Gerber Fmt 4.5, Leading zero omitted, Abs format (unit mm)*
G04 Created by KiCad (PCBNEW (6.0.5)) date 2022-09-29 16:52:37*
%MOMM*%
%LPD*%
G01*
G04 APERTURE LIST*
%TA.AperFunction,Profile*%
%ADD10C,0.100000*%
%TD*%
%ADD11C,0.200000*%
G04 APERTURE END LIST*
D10*
X18200000Y-13000000D02*
X26200000Y-13000000D01*
X26200000Y-13000000D02*
X26200000Y-5000000D01*
X26200000Y-5000000D02*
X18200000Y-5000000D01*
X18200000Y-5000000D02*
X18200000Y-13000000D01*
D11*
X18452619Y-13315476D02*
X18452619Y-13115476D01*
X18500238Y-13115476D01*
X18528810Y-13125000D01*
X18547857Y-13144048D01*
X18557381Y-13163095D01*
X18566905Y-13201190D01*
X18566905Y-13229762D01*
X18557381Y-13267857D01*
X18547857Y-13286905D01*
X18528810Y-13305952D01*
X18500238Y-13315476D01*
X18452619Y-13315476D01*
X18652619Y-13315476D02*
X18652619Y-13182143D01*
X18652619Y-13220238D02*
X18662143Y-13201190D01*
X18671667Y-13191667D01*
X18690714Y-13182143D01*
X18709762Y-13182143D01*
X18776429Y-13315476D02*
X18776429Y-13182143D01*
X18776429Y-13115476D02*
X18766905Y-13125000D01*
X18776429Y-13134524D01*
X18785952Y-13125000D01*
X18776429Y-13115476D01*
X18776429Y-13134524D01*
X18900238Y-13315476D02*
X18881190Y-13305952D01*
X18871667Y-13286905D01*
X18871667Y-13115476D01*
X19005000Y-13315476D02*
X18985952Y-13305952D01*
X18976429Y-13286905D01*
X18976429Y-13115476D01*
X19233571Y-13315476D02*
X19233571Y-13115476D01*
X19300238Y-13258333D01*
X19366905Y-13115476D01*
X19366905Y-13315476D01*
X19547857Y-13315476D02*
X19547857Y-13210714D01*
X19538333Y-13191667D01*
X19519286Y-13182143D01*
X19481190Y-13182143D01*
X19462143Y-13191667D01*
X19547857Y-13305952D02*
X19528810Y-13315476D01*
X19481190Y-13315476D01*
X19462143Y-13305952D01*
X19452619Y-13286905D01*
X19452619Y-13267857D01*
X19462143Y-13248809D01*
X19481190Y-13239286D01*
X19528810Y-13239286D01*
X19547857Y-13229762D01*
X19643095Y-13182143D02*
X19643095Y-13382143D01*
X19643095Y-13191667D02*
X19662143Y-13182143D01*
X19700238Y-13182143D01*
X19719286Y-13191667D01*
X19728810Y-13201190D01*
X19738333Y-13220238D01*
X19738333Y-13277381D01*
X19728810Y-13296428D01*
X19719286Y-13305952D01*
X19700238Y-13315476D01*
X19662143Y-13315476D01*
X19643095Y-13305952D01*
X19824048Y-13296428D02*
X19833571Y-13305952D01*
X19824048Y-13315476D01*
X19814524Y-13305952D01*
X19824048Y-13296428D01*
X19824048Y-13315476D01*
X19824048Y-13191667D02*
X19833571Y-13201190D01*
X19824048Y-13210714D01*
X19814524Y-13201190D01*
X19824048Y-13191667D01*
X19824048Y-13210714D01*
M02*
