G04 #@! TF.GenerationSoftware,KiCad,Pcbnew,(6.0.5)*
G04 #@! TF.CreationDate,2022-09-29T16:52:03+02:00*
G04 #@! TF.ProjectId,target,74617267-6574-42e6-9b69-6361645f7063,rev?*
G04 #@! TF.SameCoordinates,Original*
G04 #@! TF.FileFunction,Paste,Top*
G04 #@! TF.FilePolarity,Positive*
%FSLAX46Y46*%
G04 Gerber Fmt 4.6, Leading zero omitted, Abs format (unit mm)*
G04 Created by KiCad (PCBNEW (6.0.5)) date 2022-09-29 16:52:03*
%MOMM*%
%LPD*%
G01*
G04 APERTURE LIST*
G04 Aperture macros list*
%AMRoundRect*
0 Rectangle with rounded corners*
0 $1 Rounding radius*
0 $2 $3 $4 $5 $6 $7 $8 $9 X,Y pos of 4 corners*
0 Add a 4 corners polygon primitive as box body*
4,1,4,$2,$3,$4,$5,$6,$7,$8,$9,$2,$3,0*
0 Add four circle primitives for the rounded corners*
1,1,$1+$1,$2,$3*
1,1,$1+$1,$4,$5*
1,1,$1+$1,$6,$7*
1,1,$1+$1,$8,$9*
0 Add four rect primitives between the rounded corners*
20,1,$1+$1,$2,$3,$4,$5,0*
20,1,$1+$1,$4,$5,$6,$7,0*
20,1,$1+$1,$6,$7,$8,$9,0*
20,1,$1+$1,$8,$9,$2,$3,0*%
G04 Aperture macros list end*
%ADD10R,1.300000X1.550000*%
%ADD11RoundRect,0.250000X0.450000X-0.350000X0.450000X0.350000X-0.450000X0.350000X-0.450000X-0.350000X0*%
%ADD12RoundRect,0.250000X-0.350000X-0.450000X0.350000X-0.450000X0.350000X0.450000X-0.350000X0.450000X0*%
%ADD13RoundRect,0.250001X-0.462499X-0.624999X0.462499X-0.624999X0.462499X0.624999X-0.462499X0.624999X0*%
%ADD14R,0.500000X0.800000*%
%ADD15R,0.400000X0.800000*%
%ADD16RoundRect,0.250000X-0.450000X0.350000X-0.450000X-0.350000X0.450000X-0.350000X0.450000X0.350000X0*%
%ADD17RoundRect,0.150000X-0.825000X-0.150000X0.825000X-0.150000X0.825000X0.150000X-0.825000X0.150000X0*%
%ADD18RoundRect,0.250000X0.475000X-0.337500X0.475000X0.337500X-0.475000X0.337500X-0.475000X-0.337500X0*%
%ADD19RoundRect,0.150000X0.150000X-0.587500X0.150000X0.587500X-0.150000X0.587500X-0.150000X-0.587500X0*%
%ADD20RoundRect,0.250000X0.337500X0.475000X-0.337500X0.475000X-0.337500X-0.475000X0.337500X-0.475000X0*%
%ADD21RoundRect,0.250001X-0.624999X0.462499X-0.624999X-0.462499X0.624999X-0.462499X0.624999X0.462499X0*%
%ADD22RoundRect,0.150000X-0.587500X-0.150000X0.587500X-0.150000X0.587500X0.150000X-0.587500X0.150000X0*%
%ADD23RoundRect,0.250000X0.400000X0.275000X-0.400000X0.275000X-0.400000X-0.275000X0.400000X-0.275000X0*%
%ADD24RoundRect,0.250001X0.462499X0.624999X-0.462499X0.624999X-0.462499X-0.624999X0.462499X-0.624999X0*%
%ADD25RoundRect,0.150000X-0.150000X0.587500X-0.150000X-0.587500X0.150000X-0.587500X0.150000X0.587500X0*%
%ADD26RoundRect,0.250000X-0.475000X0.337500X-0.475000X-0.337500X0.475000X-0.337500X0.475000X0.337500X0*%
%ADD27R,2.000000X1.500000*%
%ADD28R,2.000000X3.800000*%
%ADD29O,0.950000X1.250000*%
%ADD30O,1.550000X0.890000*%
%ADD31R,1.350000X0.400000*%
%ADD32R,1.550000X1.500000*%
%ADD33R,1.550000X1.200000*%
%ADD34RoundRect,0.250000X-0.337500X-0.475000X0.337500X-0.475000X0.337500X0.475000X-0.337500X0.475000X0*%
%ADD35R,2.000000X0.900000*%
%ADD36R,0.900000X2.000000*%
%ADD37R,5.000000X5.000000*%
G04 APERTURE END LIST*
D10*
X256000000Y-87225000D03*
X256000000Y-79275000D03*
X260500000Y-79275000D03*
X260500000Y-87225000D03*
D11*
X245000000Y-96750000D03*
X245000000Y-94750000D03*
D12*
X249000000Y-99500000D03*
X251000000Y-99500000D03*
D13*
X227012500Y-117000000D03*
X229987500Y-117000000D03*
D14*
X217800000Y-108400000D03*
D15*
X218600000Y-108400000D03*
X219400000Y-108400000D03*
D14*
X220200000Y-108400000D03*
X220200000Y-106600000D03*
D15*
X219400000Y-106600000D03*
X218600000Y-106600000D03*
D14*
X217800000Y-106600000D03*
D16*
X245750000Y-83250000D03*
X245750000Y-85250000D03*
X250000000Y-94750000D03*
X250000000Y-96750000D03*
D13*
X212126500Y-117000000D03*
X215101500Y-117000000D03*
D17*
X236525000Y-98555000D03*
X236525000Y-99825000D03*
X236525000Y-101095000D03*
X236525000Y-102365000D03*
X236525000Y-103635000D03*
X236525000Y-104905000D03*
X236525000Y-106175000D03*
X236525000Y-107445000D03*
X241475000Y-107445000D03*
X241475000Y-106175000D03*
X241475000Y-104905000D03*
X241475000Y-103635000D03*
X241475000Y-102365000D03*
X241475000Y-101095000D03*
X241475000Y-99825000D03*
X241475000Y-98555000D03*
D12*
X249000000Y-103500000D03*
X251000000Y-103500000D03*
D18*
X227000000Y-88787500D03*
X227000000Y-86712500D03*
D12*
X257000000Y-62000000D03*
X259000000Y-62000000D03*
D19*
X244050000Y-92437500D03*
X245950000Y-92437500D03*
X245000000Y-90562500D03*
D20*
X259037500Y-117250000D03*
X256962500Y-117250000D03*
D21*
X249250000Y-82762500D03*
X249250000Y-85737500D03*
D22*
X205062500Y-111550000D03*
X205062500Y-113450000D03*
X206937500Y-112500000D03*
D23*
X223975000Y-67000000D03*
X222025000Y-67000000D03*
D24*
X259987500Y-103500000D03*
X257012500Y-103500000D03*
D22*
X220062500Y-111550000D03*
X220062500Y-113450000D03*
X221937500Y-112500000D03*
D25*
X253450000Y-90562500D03*
X251550000Y-90562500D03*
X252500000Y-92437500D03*
D22*
X227562500Y-111550000D03*
X227562500Y-113450000D03*
X229437500Y-112500000D03*
D26*
X232500000Y-99712500D03*
X232500000Y-101787500D03*
D27*
X222650000Y-91550000D03*
X222650000Y-89250000D03*
X222650000Y-86950000D03*
D28*
X216350000Y-89250000D03*
D22*
X212562500Y-111550000D03*
X212562500Y-113450000D03*
X214437500Y-112500000D03*
D13*
X204506500Y-116840000D03*
X207481500Y-116840000D03*
D29*
X256664000Y-108244000D03*
X256664000Y-113244000D03*
D30*
X259364000Y-107244000D03*
X259364000Y-114244000D03*
D31*
X256664000Y-112044000D03*
X256664000Y-111394000D03*
X256664000Y-110744000D03*
X256664000Y-110094000D03*
X256664000Y-109444000D03*
D32*
X259364000Y-109744000D03*
D33*
X259364000Y-107844000D03*
X259364000Y-113644000D03*
D32*
X259364000Y-111744000D03*
D34*
X221962500Y-63500000D03*
X224037500Y-63500000D03*
D14*
X217800000Y-103900000D03*
D15*
X218600000Y-103900000D03*
X219400000Y-103900000D03*
D14*
X220200000Y-103900000D03*
X220200000Y-102100000D03*
D15*
X219400000Y-102100000D03*
X218600000Y-102100000D03*
D14*
X217800000Y-102100000D03*
D11*
X258500000Y-92500000D03*
X258500000Y-90500000D03*
D10*
X256000000Y-73225000D03*
X256000000Y-65275000D03*
X260500000Y-73225000D03*
X260500000Y-65275000D03*
D35*
X231530000Y-62781000D03*
X231530000Y-64051000D03*
X231530000Y-65321000D03*
X231530000Y-66591000D03*
X231530000Y-67861000D03*
X231530000Y-69131000D03*
X231530000Y-70401000D03*
X231530000Y-71671000D03*
X231530000Y-72941000D03*
X231530000Y-74211000D03*
X231530000Y-75481000D03*
X231530000Y-76751000D03*
X231530000Y-78021000D03*
X231530000Y-79291000D03*
D36*
X234315000Y-80291000D03*
X235585000Y-80291000D03*
X236855000Y-80291000D03*
X238125000Y-80291000D03*
X239395000Y-80291000D03*
X240665000Y-80291000D03*
X241935000Y-80291000D03*
X243205000Y-80291000D03*
X244475000Y-80291000D03*
X245745000Y-80291000D03*
D35*
X248530000Y-79291000D03*
X248530000Y-78021000D03*
X248530000Y-76751000D03*
X248530000Y-75481000D03*
X248530000Y-74211000D03*
X248530000Y-72941000D03*
X248530000Y-71671000D03*
X248530000Y-70401000D03*
X248530000Y-69131000D03*
X248530000Y-67861000D03*
X248530000Y-66591000D03*
X248530000Y-65321000D03*
X248530000Y-64051000D03*
X248530000Y-62781000D03*
D37*
X239030000Y-70281000D03*
D24*
X259987500Y-99500000D03*
X257012500Y-99500000D03*
D13*
X219512500Y-117000000D03*
X222487500Y-117000000D03*
M02*
