G04 #@! TF.GenerationSoftware,KiCad,Pcbnew,(6.0.5)*
G04 #@! TF.CreationDate,2022-09-29T16:52:03+02:00*
G04 #@! TF.ProjectId,target,74617267-6574-42e6-9b69-6361645f7063,rev?*
G04 #@! TF.SameCoordinates,Original*
G04 #@! TF.FileFunction,Paste,Bot*
G04 #@! TF.FilePolarity,Positive*
%FSLAX46Y46*%
G04 Gerber Fmt 4.6, Leading zero omitted, Abs format (unit mm)*
G04 Created by KiCad (PCBNEW (6.0.5)) date 2022-09-29 16:52:03*
%MOMM*%
%LPD*%
G01*
G04 APERTURE LIST*
G04 Aperture macros list*
%AMRoundRect*
0 Rectangle with rounded corners*
0 $1 Rounding radius*
0 $2 $3 $4 $5 $6 $7 $8 $9 X,Y pos of 4 corners*
0 Add a 4 corners polygon primitive as box body*
4,1,4,$2,$3,$4,$5,$6,$7,$8,$9,$2,$3,0*
0 Add four circle primitives for the rounded corners*
1,1,$1+$1,$2,$3*
1,1,$1+$1,$4,$5*
1,1,$1+$1,$6,$7*
1,1,$1+$1,$8,$9*
0 Add four rect primitives between the rounded corners*
20,1,$1+$1,$2,$3,$4,$5,0*
20,1,$1+$1,$4,$5,$6,$7,0*
20,1,$1+$1,$6,$7,$8,$9,0*
20,1,$1+$1,$8,$9,$2,$3,0*%
G04 Aperture macros list end*
%ADD10RoundRect,0.250000X-0.337500X-0.475000X0.337500X-0.475000X0.337500X0.475000X-0.337500X0.475000X0*%
%ADD11R,1.500000X1.000000*%
G04 APERTURE END LIST*
D10*
X197962500Y-108000000D03*
X200037500Y-108000000D03*
D11*
X193550000Y-91600000D03*
X193550000Y-88400000D03*
X198450000Y-88400000D03*
X198450000Y-91600000D03*
D10*
X207962500Y-118000000D03*
X210037500Y-118000000D03*
X243962500Y-82000000D03*
X246037500Y-82000000D03*
D11*
X219550000Y-65600000D03*
X219550000Y-62400000D03*
X224450000Y-62400000D03*
X224450000Y-65600000D03*
D10*
X220962500Y-57000000D03*
X223037500Y-57000000D03*
D11*
X196550000Y-78600000D03*
X196550000Y-75400000D03*
X201450000Y-75400000D03*
X201450000Y-78600000D03*
X242550000Y-104600000D03*
X242550000Y-101400000D03*
X247450000Y-101400000D03*
X247450000Y-104600000D03*
D10*
X223712500Y-120000000D03*
X225787500Y-120000000D03*
D11*
X245550000Y-91600000D03*
X245550000Y-88400000D03*
X250450000Y-88400000D03*
X250450000Y-91600000D03*
X232550000Y-114600000D03*
X232550000Y-111400000D03*
X237450000Y-111400000D03*
X237450000Y-114600000D03*
X206550000Y-114600000D03*
X206550000Y-111400000D03*
X211450000Y-111400000D03*
X211450000Y-114600000D03*
D10*
X207962500Y-72000000D03*
X210037500Y-72000000D03*
X233962500Y-72000000D03*
X236037500Y-72000000D03*
X197962500Y-82000000D03*
X200037500Y-82000000D03*
X194962500Y-95000000D03*
X197037500Y-95000000D03*
X233962500Y-118000000D03*
X236037500Y-118000000D03*
X246962500Y-95000000D03*
X249037500Y-95000000D03*
D11*
X206550000Y-68600000D03*
X206550000Y-65400000D03*
X211450000Y-65400000D03*
X211450000Y-68600000D03*
X242550000Y-78600000D03*
X242550000Y-75400000D03*
X247450000Y-75400000D03*
X247450000Y-78600000D03*
X219550000Y-117600000D03*
X219550000Y-114400000D03*
X224450000Y-114400000D03*
X224450000Y-117600000D03*
D10*
X220962500Y-69000000D03*
X223037500Y-69000000D03*
X243962500Y-108000000D03*
X246037500Y-108000000D03*
D11*
X196550000Y-104600000D03*
X196550000Y-101400000D03*
X201450000Y-101400000D03*
X201450000Y-104600000D03*
X232550000Y-68600000D03*
X232550000Y-65400000D03*
X237450000Y-65400000D03*
X237450000Y-68600000D03*
M02*
