G04 #@! TF.GenerationSoftware,KiCad,Pcbnew,(6.0.5)*
G04 #@! TF.CreationDate,2022-09-29T16:52:04+02:00*
G04 #@! TF.ProjectId,target,74617267-6574-42e6-9b69-6361645f7063,rev?*
G04 #@! TF.SameCoordinates,Original*
G04 #@! TF.FileFunction,Soldermask,Bot*
G04 #@! TF.FilePolarity,Negative*
%FSLAX46Y46*%
G04 Gerber Fmt 4.6, Leading zero omitted, Abs format (unit mm)*
G04 Created by KiCad (PCBNEW (6.0.5)) date 2022-09-29 16:52:04*
%MOMM*%
%LPD*%
G01*
G04 APERTURE LIST*
G04 Aperture macros list*
%AMRoundRect*
0 Rectangle with rounded corners*
0 $1 Rounding radius*
0 $2 $3 $4 $5 $6 $7 $8 $9 X,Y pos of 4 corners*
0 Add a 4 corners polygon primitive as box body*
4,1,4,$2,$3,$4,$5,$6,$7,$8,$9,$2,$3,0*
0 Add four circle primitives for the rounded corners*
1,1,$1+$1,$2,$3*
1,1,$1+$1,$4,$5*
1,1,$1+$1,$6,$7*
1,1,$1+$1,$8,$9*
0 Add four rect primitives between the rounded corners*
20,1,$1+$1,$2,$3,$4,$5,0*
20,1,$1+$1,$4,$5,$6,$7,0*
20,1,$1+$1,$6,$7,$8,$9,0*
20,1,$1+$1,$8,$9,$2,$3,0*%
G04 Aperture macros list end*
%ADD10C,6.000000*%
%ADD11RoundRect,0.250000X-0.350000X-0.625000X0.350000X-0.625000X0.350000X0.625000X-0.350000X0.625000X0*%
%ADD12O,1.200000X1.750000*%
%ADD13O,0.950000X1.250000*%
%ADD14O,1.550000X0.890000*%
%ADD15R,1.700000X1.700000*%
%ADD16O,1.700000X1.700000*%
%ADD17RoundRect,0.250000X-0.337500X-0.475000X0.337500X-0.475000X0.337500X0.475000X-0.337500X0.475000X0*%
%ADD18R,1.500000X1.000000*%
%ADD19RoundRect,0.249200X0.450800X0.450800X-0.450800X0.450800X-0.450800X-0.450800X0.450800X-0.450800X0*%
%ADD20C,1.400000*%
G04 APERTURE END LIST*
D10*
X186000000Y-54000000D03*
X258000000Y-126000000D03*
D11*
X235500000Y-122550000D03*
D12*
X237500000Y-122550000D03*
X239500000Y-122550000D03*
D11*
X227500000Y-122550000D03*
D12*
X229500000Y-122550000D03*
D11*
X220000000Y-122550000D03*
D12*
X222000000Y-122550000D03*
D11*
X193000000Y-122550000D03*
D12*
X195000000Y-122550000D03*
X197000000Y-122550000D03*
X199000000Y-122550000D03*
D11*
X245000000Y-122550000D03*
D12*
X247000000Y-122550000D03*
X249000000Y-122550000D03*
X251000000Y-122550000D03*
D10*
X186000000Y-126000000D03*
X258000000Y-54000000D03*
D13*
X256664000Y-113244000D03*
D14*
X259364000Y-114244000D03*
D13*
X256664000Y-108244000D03*
D14*
X259364000Y-107244000D03*
D11*
X212500000Y-122550000D03*
D12*
X214500000Y-122550000D03*
D11*
X205000000Y-122550000D03*
D12*
X207000000Y-122550000D03*
D15*
X204719000Y-77719000D03*
D16*
X207259000Y-77719000D03*
X204719000Y-80259000D03*
X207259000Y-80259000D03*
X204719000Y-82799000D03*
X207259000Y-82799000D03*
X204719000Y-85339000D03*
X207259000Y-85339000D03*
X204719000Y-87879000D03*
X207259000Y-87879000D03*
X204719000Y-90419000D03*
X207259000Y-90419000D03*
X204719000Y-92959000D03*
X207259000Y-92959000D03*
X204719000Y-95499000D03*
X207259000Y-95499000D03*
X204719000Y-98039000D03*
X207259000Y-98039000D03*
X204719000Y-100579000D03*
X207259000Y-100579000D03*
X204719000Y-103119000D03*
X207259000Y-103119000D03*
X204719000Y-105659000D03*
X207259000Y-105659000D03*
D17*
X197962500Y-108000000D03*
X200037500Y-108000000D03*
D18*
X193550000Y-91600000D03*
X193550000Y-88400000D03*
X198450000Y-88400000D03*
X198450000Y-91600000D03*
D17*
X207962500Y-118000000D03*
X210037500Y-118000000D03*
X243962500Y-82000000D03*
X246037500Y-82000000D03*
D18*
X219550000Y-65600000D03*
X219550000Y-62400000D03*
X224450000Y-62400000D03*
X224450000Y-65600000D03*
D17*
X220962500Y-57000000D03*
X223037500Y-57000000D03*
D18*
X196550000Y-78600000D03*
X196550000Y-75400000D03*
X201450000Y-75400000D03*
X201450000Y-78600000D03*
X242550000Y-104600000D03*
X242550000Y-101400000D03*
X247450000Y-101400000D03*
X247450000Y-104600000D03*
D17*
X223712500Y-120000000D03*
X225787500Y-120000000D03*
D18*
X245550000Y-91600000D03*
X245550000Y-88400000D03*
X250450000Y-88400000D03*
X250450000Y-91600000D03*
X232550000Y-114600000D03*
X232550000Y-111400000D03*
X237450000Y-111400000D03*
X237450000Y-114600000D03*
X206550000Y-114600000D03*
X206550000Y-111400000D03*
X211450000Y-111400000D03*
X211450000Y-114600000D03*
D17*
X207962500Y-72000000D03*
X210037500Y-72000000D03*
D19*
X225800000Y-97485000D03*
D20*
X223260000Y-97485000D03*
X218180000Y-97485000D03*
D17*
X233962500Y-72000000D03*
X236037500Y-72000000D03*
X197962500Y-82000000D03*
X200037500Y-82000000D03*
X194962500Y-95000000D03*
X197037500Y-95000000D03*
X233962500Y-118000000D03*
X236037500Y-118000000D03*
X246962500Y-95000000D03*
X249037500Y-95000000D03*
D18*
X206550000Y-68600000D03*
X206550000Y-65400000D03*
X211450000Y-65400000D03*
X211450000Y-68600000D03*
X242550000Y-78600000D03*
X242550000Y-75400000D03*
X247450000Y-75400000D03*
X247450000Y-78600000D03*
X219550000Y-117600000D03*
X219550000Y-114400000D03*
X224450000Y-114400000D03*
X224450000Y-117600000D03*
D17*
X220962500Y-69000000D03*
X223037500Y-69000000D03*
X243962500Y-108000000D03*
X246037500Y-108000000D03*
D18*
X196550000Y-104600000D03*
X196550000Y-101400000D03*
X201450000Y-101400000D03*
X201450000Y-104600000D03*
X232550000Y-68600000D03*
X232550000Y-65400000D03*
X237450000Y-65400000D03*
X237450000Y-68600000D03*
M02*
