M48
; DRILL file {KiCad (6.0.5)} date Thu Sep 29 16:52:27 2022
; FORMAT={-:-/ absolute / metric / decimal}
; #@! TF.CreationDate,2022-09-29T16:52:27+02:00
; #@! TF.GenerationSoftware,Kicad,Pcbnew,(6.0.5)
; #@! TF.FileFunction,Plated,1,2,PTH
FMAT,2
METRIC
; #@! TA.AperFunction,Plated,PTH,ViaDrill
T1C0.400
; #@! TA.AperFunction,Plated,PTH,ComponentDrill
T2C0.500
; #@! TA.AperFunction,Plated,PTH,ComponentDrill
T3C0.550
; #@! TA.AperFunction,Plated,PTH,ComponentDrill
T4C0.700
; #@! TA.AperFunction,Plated,PTH,ComponentDrill
T5C0.750
; #@! TA.AperFunction,Plated,PTH,ComponentDrill
T6C1.000
; #@! TA.AperFunction,Plated,PTH,ComponentDrill
T7C3.000
%
G90
G05
T1
X185.0Y-60.0
X185.0Y-75.0
X185.0Y-90.0
X185.0Y-105.0
X185.0Y-120.0
X190.0Y-65.0
X190.0Y-80.0
X190.0Y-95.0
X190.0Y-110.0
X195.0Y-55.0
X195.0Y-70.0
X195.0Y-85.0
X195.0Y-100.0
X197.5Y-117.5
X197.8Y-97.4
X198.596Y-95.004
X198.938Y-83.4
X199.8Y-111.4
X200.0Y-60.0
X201.137Y-83.021
X201.255Y-111.3
X201.264Y-107.672
X202.5Y-67.5
X202.5Y-92.5
X202.5Y-125.0
X204.4Y-114.6
X204.8Y-72.306
X204.8Y-107.4
X205.3Y-63.6
X210.0Y-55.0
X210.0Y-102.5
X210.0Y-122.5
X211.6Y-69.6
X212.5Y-107.5
X212.919Y-87.774
X213.829Y-85.047
X213.837Y-86.133
X213.882Y-83.899
X213.937Y-82.748
X214.045Y-81.545
X215.0Y-70.0
X215.0Y-80.75
X215.0Y-95.0
X217.089Y-107.616
X217.2Y-85.2
X217.5Y-122.5
X217.75Y-101.5
X217.825Y-109.4
X218.0Y-113.0
X219.0Y-105.25
X219.202Y-100.452
X219.25Y-67.757
X219.426Y-107.4
X219.452Y-110.298
X219.75Y-61.0
X220.0Y-72.5
X220.477Y-100.727
X221.25Y-107.625
X221.938Y-59.4
X222.0Y-109.174
X222.5Y-100.75
X224.0Y-110.0
X224.2Y-116.0
X224.502Y-112.898
X224.6Y-59.4
X225.0Y-55.0
X225.0Y-95.0
X225.0Y-105.0
X225.0Y-122.5
X226.25Y-101.5
X227.732Y-70.159
X229.5Y-101.5
X231.6Y-115.4
X232.5Y-98.0
X232.5Y-105.0
X232.5Y-122.5
X234.25Y-70.25
X234.75Y-78.5
X234.75Y-85.25
X235.0Y-75.0
X235.074Y-94.0
X235.3Y-65.3
X235.5Y-97.25
X235.6Y-111.4
X235.75Y-78.5
X235.75Y-85.5
X235.849Y-91.0
X237.0Y-84.75
X237.2Y-113.6
X237.75Y-109.5
X238.0Y-116.0
X238.8Y-65.4
X239.0Y-109.5
X239.25Y-113.0
X240.0Y-95.0
X240.5Y-112.75
X240.75Y-82.25
X241.6Y-75.0
X242.0Y-82.5
X242.5Y-87.5
X242.5Y-117.5
X242.5Y-122.5
X242.532Y-68.968
X242.774Y-81.795
X242.808Y-112.496
X243.337Y-70.868
X243.75Y-97.456
X244.0Y-84.25
X244.0Y-106.0
X244.5Y-78.25
X244.861Y-67.239
X245.0Y-99.654
X245.798Y-68.952
X246.0Y-75.2
X246.0Y-99.75
X246.157Y-72.593
X246.5Y-97.456
X246.6Y-62.4
X246.738Y-68.614
X246.798Y-69.952
X247.048Y-96.325
X247.75Y-92.75
X247.901Y-91.307
X248.0Y-106.0
X249.25Y-102.0
X250.0Y-107.5
X250.0Y-115.0
X250.13Y-64.401
X250.25Y-66.5
X250.25Y-67.75
X250.25Y-74.0
X250.25Y-75.0
X250.25Y-76.25
X250.4Y-93.0
X250.774Y-81.0
X251.0Y-77.4
X251.025Y-82.46
X252.692Y-88.367
X254.0Y-89.25
X255.0Y-60.0
X255.0Y-120.0
X257.5Y-77.5
X257.5Y-95.0
T4
X218.18Y-97.485
X223.26Y-97.485
X225.8Y-97.485
T5
X193.0Y-122.55
X195.0Y-122.55
X197.0Y-122.55
X199.0Y-122.55
X205.0Y-122.55
X207.0Y-122.55
X212.5Y-122.55
X214.5Y-122.55
X220.0Y-122.55
X222.0Y-122.55
X227.5Y-122.55
X229.5Y-122.55
X235.5Y-122.55
X237.5Y-122.55
X239.5Y-122.55
X245.0Y-122.55
X247.0Y-122.55
X249.0Y-122.55
X251.0Y-122.55
T6
X204.719Y-77.719
X204.719Y-80.259
X204.719Y-82.799
X204.719Y-85.339
X204.719Y-87.879
X204.719Y-90.419
X204.719Y-92.959
X204.719Y-95.499
X204.719Y-98.039
X204.719Y-100.579
X204.719Y-103.119
X204.719Y-105.659
X207.259Y-77.719
X207.259Y-80.259
X207.259Y-82.799
X207.259Y-85.339
X207.259Y-87.879
X207.259Y-90.419
X207.259Y-92.959
X207.259Y-95.499
X207.259Y-98.039
X207.259Y-100.579
X207.259Y-103.119
X207.259Y-105.659
T7
X186.0Y-54.0
X186.0Y-126.0
X258.0Y-54.0
X258.0Y-126.0
T2
X259.039Y-107.244G85X259.689Y-107.244
G05
X259.039Y-114.244G85X259.689Y-114.244
G05
T3
X256.664Y-108.394G85X256.664Y-108.094
G05
X256.664Y-113.394G85X256.664Y-113.094
G05
T0
M30
